<svg width="108" height="142" viewBox="0 0 108 142" xmlns="http://www.w3.org/2000/svg"><title>Group</title><g fill-rule="nonzero" fill="none"><path d="M101.809 29.636L55.983 4.51A4.123 4.123 0 0053.992 4 4.1 4.1 0 0052 4.51L6.175 29.637A4.192 4.192 0 004 33.313v33.5c0 18.424 4.724 33.315 14.456 45.534 7.599 9.548 17.989 17.32 33.678 25.21A4.163 4.163 0 0054 138a4.19 4.19 0 001.866-.444c15.69-7.89 26.08-15.661 33.678-25.209C99.267 100.128 104 85.23 104 66.813v-33.5c0-1.533-.833-2.94-2.175-3.677h-.016z" stroke="#272727" stroke-width="8"/><path d="M84.989 62.56a19.717 19.717 0 00-11.293-17.796C73.21 34.336 64.56 26 53.994 26c-10.566 0-19.216 8.336-19.7 18.764A19.706 19.706 0 0023 62.56c0 8.133 4.97 15.13 12.037 18.128l16.427 33.726a2.818 2.818 0 005.072 0l16.427-33.726A19.72 19.72 0 0085 62.56h-.011zM64.842 77H42.17C34.36 77 28 70.829 28 63.25c.006-4.461 2.24-8.643 5.993-11.22 3.753-2.576 8.56-3.228 12.898-1.749a2.901 2.901 0 002.786-.504 2.705 2.705 0 00.944-2.593 2.776 2.776 0 00-1.842-2.09 20.402 20.402 0 00-9.194-.929C40.871 37.691 46.705 33.01 53.5 33c5.584.01 10.641 3.198 12.92 8.144 2.28 4.947 1.355 10.73-2.36 14.775a2.692 2.692 0 00-.664 2.734 2.806 2.806 0 002.16 1.873 2.882 2.882 0 002.726-.945 19.052 19.052 0 004.364-7.804c3.964 2.55 6.35 6.858 6.354 11.473C79 70.829 72.646 77 64.83 77h.012z" fill="#272727"/></g></svg>