<?xml version="1.0" encoding="UTF-8"?>
<svg width="108px" height="142px" viewBox="0 0 108 142" version="1.1" xmlns="http://www.w3.org/2000/svg" xmlns:xlink="http://www.w3.org/1999/xlink">
    <!-- Generator: Sketch 63.1 (92452) - https://sketch.com -->
    <title>Group</title>
    <desc>Created with Sketch.</desc>
    <g id="Prep-School" stroke="none" stroke-width="1" fill="none" fill-rule="evenodd">
        <g id="Favicon" transform="translate(-22.000000, -5.000000)" fill-rule="nonzero">
            <g id="Group" transform="translate(26.000000, 9.000000)">
                <g id="shield" stroke="#272727" stroke-width="8">
                    <path d="M97.8086986,25.635875 L51.9830028,0.510875 C51.358107,0.1675 50.6748875,0 49.9916681,0 C49.3084486,0 48.6168972,0.1675 48.0003333,0.510875 L2.17463756,25.635875 C0.833194468,26.372875 0,27.779875 0,29.3125 L0,62.8125 C0,81.2375 4.72421263,96.12825 14.455924,108.347375 C22.0546576,117.894875 32.4445926,125.666875 48.1336444,133.556125 C48.7168805,133.84925 49.3584403,134 50,134 C50.6415597,134 51.2747875,133.84925 51.8663556,133.556125 C67.5554074,125.666875 77.9453424,117.894875 85.544076,108.347375 C95.2674554,96.12825 100,81.229125 100,62.8125 L100,29.3125 C100,27.779875 99.1668055,26.372875 97.8253624,25.635875 L97.8086986,25.635875 Z" id="Shape"></path>
                </g>
                <path d="M80.9887293,58.5600892 C80.980094,50.9499801 76.584992,44.0239949 69.6955099,40.7637627 C69.2108708,30.3357003 60.5606253,22 49.9943647,22 C39.428104,22 30.7778586,30.3357003 30.2932194,40.7637627 C23.4018402,44.0218549 19.0058861,50.9491828 19,58.5600892 C19,66.6933029 23.970369,73.6903415 31.0370842,76.6882688 L47.4640974,110.413545 C47.9348918,111.383766 48.9199236,112 50,112 C51.0800764,112 52.0651082,111.383766 52.5359026,110.413545 L68.9629158,76.6882688 C76.2527892,73.5995316 80.9903997,66.46456 81,58.5600892 L80.9887293,58.5600892 Z M60.8415203,73 L38.1698155,73 C30.3594132,73 24,66.829 24,59.25 C24.0062045,54.7886575 26.2399841,50.6068497 29.9932325,48.0302064 C33.7464809,45.4535631 38.5537719,44.8016041 42.891198,46.281 C43.8459643,46.608166 44.9080748,46.4162092 45.6774428,45.7774378 C46.4468108,45.1386664 46.8065509,44.1501251 46.6211525,43.1841878 C46.4357542,42.2182504 45.7333838,41.4216659 44.7786175,41.0945 C41.8323775,40.0863498 38.6823714,39.7678671 35.5852412,40.165 C36.8714024,33.6910615 42.7055634,29.0098156 49.5,29 C55.0835398,29.009866 60.1414373,32.1981416 62.4203622,37.1444268 C64.699287,42.0907119 63.7750269,47.8742765 60.0593465,51.9185 C59.3389201,52.6435783 59.0846192,53.6928186 59.3964779,54.653483 C59.7083366,55.6141473 60.5364534,56.3325171 61.5550735,56.5260084 C62.5736935,56.7194997 63.6198244,56.3571515 64.2819515,55.5815 C66.3620805,53.3265 67.8470771,50.648 68.6462547,47.777 C72.6101736,50.3278155 74.9952631,54.6345876 75,59.25 C75,66.829 68.6462547,73 60.8301845,73 L60.8415203,73 Z" id="Shape" fill="#272727"></path>
            </g>
        </g>
    </g>
</svg>